<?xml version="1.0" encoding="UTF-8"?>
<svg id="Layer_1" data-name="Layer 1" xmlns="http://www.w3.org/2000/svg" viewBox="0 0 104.96 91.81">
  <defs>
    <style>
      .cls-1, .cls-2 {
        fill: #fff;
      }

      .cls-3 {
        stroke: #fff;
        stroke-miterlimit: 10;
        stroke-width: .5px;
      }

      .cls-3, .cls-4, .cls-5, .cls-6, .cls-7 {
        fill: #faa72c;
      }

      .cls-8, .cls-9, .cls-5, .cls-6, .cls-7 {
        isolation: isolate;
      }

      .cls-9, .cls-6, .cls-7 {
        font-family: FranklinGothic-Medium, 'Franklin Gothic Medium';
        font-size: 20.22px;
        font-weight: 500;
      }

      .cls-5 {
        font-family: SitkaText, Sitka;
        font-size: 7.74px;
        font-variation-settings: 'opsz' 11, 'wght' 400;
      }

      .cls-6 {
        letter-spacing: .02em;
      }

      .cls-2 {
        letter-spacing: 0em;
      }
    </style>
  </defs>
  <path class="cls-3" d="m103,37.15c-2.96,1.54-4.46,3.37-5.29,4.76-.82,1.39-1.1,2.57-2.43,4.67-.97,1.51-1.92,2.61-2.58,3.32-.02,0-.02.02-.04.02h0c-.12.09-.26.19-.44.29-.17.1-.34.21-.5.31-.02.02-.06.03-.08.06-1.72,1.02-3.57,1.8-5.53,2.32-.14.03-.29.08-.45.11-.56.14-1.24.28-2.06.39-.13.02-.25.04-.39.06-.31.04-.66.08-1.02.1-.21.02-.42.02-.64.04h-.1c-.28,0-.58.02-.88.02-3.02,0-5.92-.63-8.54-1.76-.35-.14-.68-.31-1.02-.47-.37-.18-.72-.37-1.07-.57-.35-.19-.7-.4-1.04-.62-.1-.07-.22-.14-.33-.21-.15-.1-.28-.19-.42-.3-.09-.06-.18-.11-.26-.19-.15-.1-.3-.21-.45-.33-.21-.14-.42-.31-.62-.49-.06-.07-.15-.11-.21-.17-.02,0-.02-.02-.04-.03-.19-.16-.39-.32-.57-.49l-.03-.03c-.14-.11-.25-.22-.38-.34h0l-.07-.08c-.15-.13-.29-.27-.43-.42-.1-.09-.2-.19-.29-.29l-.07-.08-.51-.54c-.09-.1-.18-.19-.25-.29-.02-.02-.03-.03-.04-.06-.02-.02-.03-.04-.05-.07l-.07-.08c-.13-.14-.25-.29-.37-.44-.1-.12-.21-.24-.29-.38-.03-.04-.06-.08-.1-.12-.14-.17-.26-.34-.39-.51-.08-.1-.16-.21-.22-.31,0,0-.02-.02-.02-.03-.13-.18-.25-.36-.37-.54-.03-.04-.06-.09-.08-.13-.09-.12-.17-.24-.24-.37-.13-.19-.24-.39-.35-.59-.1-.16-.19-.32-.27-.48-.08-.14-.16-.28-.22-.42-.06-.13-.15-.26-.21-.39s-.13-.27-.19-.39c-.18-.37-.35-.73-.5-1.11s-.3-.75-.44-1.13c.06-.22.12-.42.17-.64.05-.2.1-.41.15-.62.02.03.04.08.06.11,2.43,4.43,6.98,7.41,12.18,7.41s9.76-2.97,12.18-7.41c6.27-.02,12.53-.04,18.8-.07h-.04Z"/>
  <path class="cls-3" d="m103.92,23.28c-6.14-.03-12.28-.08-18.42-.11-.05-.17-.1-.34-.17-.52-.14-.42-.3-.91-.5-1.43-.08-.2-.17-.41-.25-.62-.08-.19-.16-.38-.25-.57-.08-.2-.19-.4-.28-.61-.09-.21-.21-.42-.31-.63-.1-.22-.22-.44-.35-.67-.09-.18-.21-.39-.35-.62-.09-.14-.19-.31-.29-.48v-.02c-.1-.18-.22-.34-.35-.54,0,0,0-.02-.02-.02-.13-.19-.26-.39-.41-.59-1.74-2.47-4.86-5.95-9.71-8.03-2.63-1.13-5.52-1.75-8.54-1.75h-.47c-.22,0-.51.02-.85.03-.26.02-.52.03-.79.07-.13,0-.26.02-.4.04-.29.03-.6.08-.93.13-.17.02-.34.04-.5.09-.18.03-.35.07-.52.1-.19.03-.37.08-.56.12-.18.03-.35.08-.51.12-1.64.41-3.66.94-5.77,2.44-.02.02-.04.02-.06.06-.05.02-.1.07-.15.1-.02,0-.03,0-.04.02-.02-.06-.05-.1-.08-.16l.02-.02c.05-.06.1-.1.15-.16.68-.68,3.42-3.32,5.94-4.85.59-.36,1.2-.69,1.2-.69.91-.5,2.1-1.08,3.52-1.6,2.93-1.09,6.08-1.68,9.36-1.68,2.43,0,4.79.32,7.03.93,3.87,1.05,6.49,2.69,7.03,3.03,1.24.79,2.11,1.51,2.67,1.96,1.13.93,2.89,2.53,4.81,5,.81,1.03,1.38,1.88,1.82,2.62,1.92,3.17,2.31,4.01,3.31,5.36.88,1.19,2.38,2.76,5.01,4.13Z"/>
  <path class="cls-3" d="m46.68,30.32v.51c-.07,2.33-.66,4.54-1.66,6.47,0-.02,0-.06-.02-.08-.77-3.17-.89-5.81-.89-7.39,0-2.33.25-4.6.75-6.78,1.09,2.01,1.73,4.32,1.82,6.78v.5h.01Z"/>
  <path class="cls-3" d="m54.2,15.06c-.5-1.92-1.22-3.74-2.14-5.44-.04-.08-.09-.17-.14-.24h0s.02-.02.04-.02c1.29,1.91,1.76,3.77,2.24,5.7h0Z"/>
  <path class="cls-3" d="m85.34,22.64l-.04.09s.03-.06.04-.09c-.56-.81-1.39-1.86-2.53-2.95-.97-.93-2.43-2.31-4.76-3.35-2.51-1.12-4.64-1.32-5.8-1.32-4.05,0-7.86,1.12-11.13,3.08-.77.47-1.51.97-2.21,1.52-1.01-2.84-2.85-6.76-6.24-10.15-.08-.08-.17-.17-.24-.24,1.77-1.08,3.72-1.92,5.76-2.45.17-.04.34-.09.51-.12.19-.04.37-.09.56-.12.18-.03.35-.07.52-.1.17-.04.34-.07.5-.09.34-.06.64-.1.93-.13.14-.02.26-.03.4-.04.26-.03.52-.06.79-.07.34-.02.62-.02.85-.03h.47c3.02,0,5.92.62,8.54,1.75,4.85,2.09,7.97,5.56,9.71,8.03.15.2.28.4.41.59,0,0,0,.02.02.02.13.19.24.37.35.54v.02c.1.18.2.33.29.48.15.23.26.44.35.62.13.22.24.44.35.67.1.21.22.42.31.63.09.21.2.41.28.61.09.19.17.39.25.57.04.08.13.31.25.62.08.22.18.47.28.77.08.22.16.43.23.65Z"/>
  <path class="cls-3" d="m72.24,15.03c-5.21,0-9.76,2.97-12.18,7.4-.07.14-.15.28-.22.42-.17-.7-.45-1.83-.94-3.23.7-.54,1.44-1.05,2.21-1.52,3.28-1.95,7.08-3.08,11.13-3.08h0Z"/>
  <path class="cls-3" d="m93.38,49.13c-.06.08-.18.23-.33.41-.68.85-1.34,1.61-1.34,1.61-.3.32-1.34,1.36-2.79,2.5-.4.31-1.33,1.02-2.61,1.8-4.13,2.52-8.94,3.96-14.07,3.96s-9.93-1.44-14.07-3.96c-2.15-1.31-3.98-2.94-4.67-3.56-.37-.32-.67-.6-.87-.79.31-.34.63-.7.94-1.04,2.82-3.31,4.94-7.29,6.12-11.69,0,0,.95,2.23.94,2.24l-.26-.58s.25.6.66,1.35c.2.37.5.91.5.91,0,0,.18.31.35.59.07.12.15.24.24.37.02.04.05.09.08.13.12.19.24.38.37.54,0,0,.02.02.02.03.06.1.15.21.22.31.13.18.25.34.39.51.03.04.06.08.1.12.08.13.19.26.29.38.12.16.24.3.37.44l.07.08s.03.04.05.07c0,.02.02.03.04.06.07.1.16.19.25.29.17.19.34.37.51.54l.07.08c.09.1.19.2.29.29.14.14.27.29.43.42.02.02.05.04.07.07h0c.13.13.24.23.38.34,0,.02.02.02.03.03.19.17.38.33.57.49.02,0,.02.02.04.03.06.06.15.1.21.17.2.18.41.34.62.49.15.12.3.22.45.33.09.07.18.13.26.19.14.1.27.2.42.3.1.07.22.14.33.21.34.22.68.42,1.04.62.35.2.7.39,1.07.57.34.17.68.32,1.02.47,2.63,1.14,5.52,1.76,8.54,1.76.3,0,.6,0,.88-.02h.1c.22-.02.43-.02.64-.04.36-.02.7-.07,1.02-.1.14,0,.26-.02.39-.06.81-.11,1.5-.26,2.06-.39.16-.03.31-.08.45-.11,1.35-.36,3.33-.88,5.53-2.32.04-.03.07-.04.08-.06.75-.48,1.19-1,1.45-1.39h.03Z"/>
  <path class="cls-3" d="m46.67,29.83c-.08-2.46-.72-4.77-1.82-6.78-.02-.03-.04-.08-.06-.11-2.43-4.43-6.98-7.4-12.18-7.4s-9.76,2.96-12.18,7.4c-6.27.02-12.53.04-18.8.07,2.97-1.54,4.46-3.36,5.29-4.76.82-1.4,1.1-2.57,2.43-4.66.42-.67.95-1.64,1.94-2.61.13-.12.72-.71,1.63-1.32.85-.59,1.56-.92,2.03-1.13,0,0,1.08-.5,2.84-1.02.38-.11.75-.21.75-.21.15-.04.3-.08.45-.11.24-.07.51-.12.82-.19.21-.04.42-.08.63-.11.1-.02.23-.04.35-.06.51-.08,1.07-.14,1.67-.19.21-.02.43-.02.65-.03h.09c.29,0,.59-.02.88-.02,3.02,0,5.92.62,8.54,1.75,5.75,2.46,10.33,7.36,12.55,13.47.15.38.27.75.4,1.15.68,2.17,1.07,4.49,1.11,6.89h0v-.02Z"/>
  <path class="cls-3" d="m53.57,50.06c-.1.11-.19.22-.29.34h0c-.14.14-.29.31-.46.5l-.02.02-.15.16-.05.06c-2.63,2.74-5.09,4.3-5.9,4.79-.92.55-2.55,1.48-4.71,2.29-2.93,1.08-6.08,1.68-9.36,1.68-2.42,0-4.79-.32-7.03-.93-3.87-1.04-6.5-2.69-7.03-3.03-1.24-.79-2.11-1.51-2.67-1.96-1.13-.93-2.89-2.53-4.81-4.99-3.1-3.97-2.72-5.19-5.13-7.98-1.79-2.09-3.69-3.37-5.02-4.14,6.14.04,12.28.08,18.42.11.05.17.1.34.17.53.06.21.15.43.23.67.08.22.17.47.26.72,0,0,0,.02.02.03.08.2.17.41.25.63.02.03.02.07.04.1.06.16.14.31.21.47.1.22.2.45.31.69.02.02.02.06.04.09.07.16.16.31.24.48.1.22.23.43.35.65.39.7,1.1,1.92,2.2,3.32.18.22.36.45.56.69.1.13.22.27.34.39.16.19.31.36.49.54.17.19.35.38.52.55s.37.37.56.54c.16.14.31.3.49.44.37.33.76.67,1.18.99.27.21.55.41.83.61.29.21.6.41.9.61.04.02.09.06.14.09.27.17.54.33.81.48l.02.02c.24.14.49.28.76.4.03.02.06.04.1.07.14.07.27.14.41.2.27.13.54.26.81.38,2.63,1.13,5.52,1.75,8.54,1.75h.71c.24,0,.52-.02.85-.06.24-.02.51-.06.8-.09.09,0,.19-.02.28-.03.16-.02.3-.04.47-.07.26-.03.52-.08.79-.13.36-.07.72-.13,1.11-.22.18-.03.35-.08.51-.12,1.64-.42,3.66-.95,5.78-2.45.06-.03.1-.08.17-.12t.03-.02h0l.02-.02.02-.02s.06-.03.09-.07c.35-.27.61-.49.79-.64h0v.03Z"/>
  <path class="cls-3" d="m53.34,50.06c-.1.11-.19.22-.29.34h0c-.19.1-.35.22-.55.34h-.02l.02-.02s.06-.03.09-.07c.35-.27.61-.49.79-.64h0l-.04.04Z"/>
  <path class="cls-3" d="m60.74,30.32c0,2.33-.25,4.6-.75,6.78-.04.21-.09.42-.15.62-.05.22-.1.42-.17.64-1.18,4.39-3.3,8.39-6.12,11.69-.18.16-.44.39-.79.64-.03.02-.06.04-.09.07,0,0,0,.02-.02.02h-.02s-.02.02-.03.02c-.06.04-.12.08-.19.11-1.77,1.08-3.72,1.92-5.76,2.46-.17.04-.34.09-.51.12-.39.09-.76.16-1.11.22-.26.06-.52.1-.79.13-.16.02-.3.04-.47.07-.1,0-.19.02-.28.03-.28.03-.56.07-.8.09-.33.02-.61.04-.85.06h-.71c-3.02,0-5.92-.63-8.54-1.75-.27-.12-.55-.24-.81-.38-.15-.07-.27-.13-.41-.2-.04-.02-.07-.03-.1-.07-.26-.12-.51-.27-.76-.4,0,0-.02,0-.02-.02-.27-.14-.55-.31-.81-.48-.04-.03-.09-.07-.14-.09-.3-.2-.61-.4-.9-.61-.28-.2-.56-.4-.83-.61-.42-.32-.81-.65-1.18-.99-.18-.14-.34-.3-.49-.44-.19-.19-.38-.37-.56-.54s-.36-.38-.52-.55c-.18-.19-.34-.36-.49-.54-.12-.13-.23-.27-.34-.39-.2-.23-.39-.47-.56-.69-1.1-1.4-1.82-2.62-2.2-3.32-.13-.22-.24-.43-.35-.65-.08-.17-.17-.32-.24-.48-.02-.03-.02-.07-.04-.09-.12-.23-.22-.47-.31-.69-.07-.16-.15-.31-.21-.47-.02-.03-.02-.07-.04-.1-.08-.22-.17-.42-.25-.63,0,0,0-.02-.02-.03-.09-.26-.18-.5-.26-.72-.08-.23-.16-.47-.23-.67,0-.02.02-.06.03-.09-.01.04-.03.07-.03.09.44.63,3.24,4.5,7.29,6.29,2.97,1.31,5.8,1.31,5.8,1.31h.48c3.87-.09,7.5-1.19,10.65-3.07.77-.45,1.51-.97,2.21-1.51.24-.19.48-.39.71-.58.82-.69,1.6-1.43,2.33-2.24.24-.27.48-.54.7-.83,3.05-3.72,5.05-8.45,5.43-13.64,0-.1.02-.22.02-.32.04-.52.06-1.05.06-1.6,0-.43,0-.87-.03-1.31,0-.21-.02-.42-.05-.67,0-.1,0-.2-.02-.3-.02-.34-.06-.68-.12-1.02v-.14c-.02-.19-.06-.38-.08-.57-.06-.41-.15-.84-.24-1.3v-.03c-.05-.22-.1-.47-.16-.7-.02-.08-.04-.16-.06-.24-.47-1.93-.94-3.79-2.24-5.7.04-.03.09-.07.15-.1.02-.02.05-.02.07-.04.07.08.16.17.24.24,3.38,3.41,5.24,7.31,6.24,10.15.49,1.4.78,2.53.94,3.23,0,.02,0,.06.02.08.77,3.17.89,5.81.89,7.39h0l-.03.03Z"/>
  <path class="cls-3" d="m52.18,9.23s-.05.02-.07.04c-.05.02-.1.07-.15.1-.03-.06-.06-.1-.1-.16-.03-.06-.07-.11-.12-.17v-.02c-.26-.34-.48-.61-.63-.79h.02c.22.19.52.47.89.8.06.07.1.11.17.17h0v.02Z"/>
  <path class="cls-3" d="m55.22,21.34c0,.54-.02,1.08-.06,1.6,0,.1-.02.22-.02.32-.39,5.19-2.37,9.92-5.43,13.64-.22.29-.46.55-.7.83-.72.8-1.51,1.55-2.33,2.24-.23.19-.47.39-.71.58-.71.54-1.45,1.05-2.21,1.51-3.15,1.88-6.78,2.98-10.65,3.07,5.01-.19,9.35-3.11,11.7-7.39.07-.14.15-.28.22-.42,1-1.93,1.58-4.14,1.66-6.47v-1.01c-.04-2.41-.43-4.72-1.11-6.89-.12-.39-.25-.78-.4-1.15-2.22-6.11-6.8-11.01-12.55-13.47-2.63-1.13-5.52-1.75-8.54-1.75-.29,0-.59,0-.88.02h-.09c-.22,0-.44.02-.65.03-.6.04-1.15.11-1.67.19-.12,0-.23.02-.35.06-.21.03-.42.07-.63.11-.3.07-.58.12-.82.19-.16.03-.31.08-.45.11-.23.07-.48.13-.75.21-2.98.88-4.77,2.1-4.79,2.11h0c-1.18.77-1.7,1.39-1.71,1.38-.02-.02.8-.99,2.19-2.33,1.4-1.33,2.38-2.09,2.66-2.3.16-.12.75-.55,1.62-1.13,3.66-2.43,7.95-3.57,7.95-3.57,1.39-.37,3.81-.9,6.88-.9,5.12,0,9.93,1.44,14.07,3.96,1.67,1.02,3.22,2.21,4.65,3.54.15.18.37.44.63.79v.02l.1.19s.06.1.08.16h0c.04.09.09.18.14.26.92,1.7,1.64,3.52,2.14,5.44.02.09.04.17.06.24.06.24.1.48.16.7v.03c.09.45.18.89.24,1.3.02.19.06.39.08.57v.04s.02.07,0,.1c.05.36.09.7.12,1.02.02.1.02.2.02.3.02.23.04.45.05.67.02.43.03.87.03,1.31h0l.04-.03Z"/>
  <g>
    <g class="cls-8">
      <text class="cls-7" transform="translate(9.89 79.47) scale(.72 1)"><tspan x="0" y="0">Co</tspan></text>
    </g>
    <g class="cls-8">
      <text class="cls-6" transform="translate(25.89 79.47) scale(.72 1)"><tspan x="0" y="0">f</tspan></text>
    </g>
    <g class="cls-8">
      <text class="cls-7" transform="translate(30.77 79.47) scale(.72 1)"><tspan x="0" y="0">f</tspan></text>
    </g>
    <g class="cls-8">
      <text class="cls-9" transform="translate(35.21 79.47) scale(.72 1)"><tspan class="cls-4" x="0" y="0">ee </tspan><tspan class="cls-2" x="26.26" y="0">Coding</tspan></text>
    </g>
  </g>
  <g class="cls-8">
    <text class="cls-5" transform="translate(43 89.5) scale(.83 1)"><tspan x="0" y="0">Design</tspan></text>
  </g>
  <rect class="cls-1" x="14.36" y="86.07" width="26.49" height=".48"/>
  <rect class="cls-1" x="14.36" y="87.82" width="26.49" height=".48"/>
  <rect class="cls-1" x="65.83" y="86.07" width="26.49" height=".48"/>
  <rect class="cls-1" x="65.83" y="87.82" width="26.49" height=".48"/>
</svg>